<?xml version="1.0" encoding="UTF-8"?>
<svg version="1.1" xmlns="http://www.w3.org/2000/svg" width="1022" height="661">
<path d="M0 0 C337.26 0 674.52 0 1022 0 C1022 218.13 1022 436.26 1022 661 C684.74 661 347.48 661 0 661 C0 442.87 0 224.74 0 0 Z " fill="#FEFEFE" transform="translate(0,0)"/>
<path d="M0 0 C337.26 0 674.52 0 1022 0 C1022 22.68550737 1022 22.68550737 1021.26733398 32.18664551 C1020.78314072 39.09336401 1020.59664571 46.01288999 1020.36924744 52.93206024 C1020.27873923 55.68576494 1020.18517539 58.43935252 1020.09094238 61.19293213 C1019.92492358 66.05816101 1019.76148432 70.92347235 1019.59893799 75.78881836 C1019.3393828 83.55722037 1019.07761606 91.3255439 1018.81248474 99.09375763 C1018.72180826 101.76914188 1018.63333199 104.44459218 1018.54504395 107.12005615 C1018.1650447 118.42178808 1017.63351287 129.70968158 1017 141 C1004.36850252 141.075209 991.73699027 141.14769889 979.10546875 141.21875 C978.10141156 141.2244079 977.09735438 141.2300658 976.06287122 141.23589516 C949.41276449 141.38562491 922.76266825 141.51513333 896.11230469 141.609375 C893.60079636 141.61835258 891.08928806 141.62733496 888.57777977 141.63632202 C868.63627727 141.70738702 868.63627727 141.70738702 859.23621867 141.73909199 C823.92504777 141.85829827 788.61529015 142.04801535 753.30501664 142.32856846 C734.92216032 142.47446391 716.53937729 142.61079977 698.15617371 142.70495605 C696.92093522 142.71128611 696.92093522 142.71128611 695.66074242 142.71774405 C687.37147229 142.7598672 679.08219263 142.79933603 670.79289446 142.83552107 C666.67293166 142.85357072 662.55297199 142.87226034 658.43301392 142.89135742 C657.21309876 142.89699525 657.21309876 142.89699525 655.96853886 142.90274698 C642.84687252 142.96493014 629.72615554 143.07956617 616.60504922 143.21368319 C603.30312735 143.34854727 590.00175868 143.42790132 576.69916993 143.45280027 C568.72297997 143.46945634 560.74970073 143.52860715 552.7743733 143.64795753 C546.76686553 143.73317378 540.76195274 143.73886797 534.7537781 143.71487713 C532.32272871 143.71741101 529.89154065 143.74529018 527.46114099 143.80154896 C507.39258325 144.2430814 507.39258325 144.2430814 498.86433053 136.78681183 C496.28326445 134.24438156 493.87646952 131.60992202 491.55366182 128.83041382 C489.30582808 126.18217604 486.84249571 123.81768852 484.34375 121.40625 C482.72641199 119.77355751 481.11172501 118.13823365 479.5 116.5 C472.97934798 109.85376305 472.97934798 109.85376305 466.09375 103.59375 C460.25951342 98.58549706 454.9577193 93.01421971 449.56347656 87.54296875 C442.96376388 80.82951874 442.96376388 80.82951874 436 74.5 C430.19113392 69.53111252 424.92616785 63.98221783 419.56347656 58.54296875 C414.41057974 53.32324254 409.24613013 48.17636101 403.65625 43.41918945 C401.28751153 41.38949064 399.10582114 39.30324187 397 37 C397 36.34 397 35.68 397 35 C395.74302307 35.00444122 394.48604614 35.00888245 393.190979 35.01345825 C375.54402116 35.07319778 357.89704149 35.1052802 340.25 35.125 C339.4969063 35.12586861 338.74381261 35.12673721 337.96789789 35.12763214 C265.01441576 35.20930436 192.06572245 34.62240842 119.11542392 34.01804292 C116.93100226 33.99994617 114.74658043 33.9818698 112.56215858 33.96379566 C75.04134623 33.65320551 37.52063283 33.33160282 0 33 C0 22.11 0 11.22 0 0 Z " fill="#1E58AF" transform="translate(0,0)"/>
<path d="M0 0 C6.72142357 -0.15754311 13.44337707 -0.2697879 20.1658755 -0.37019366 C24.62843702 -0.44026338 29.08702626 -0.53588035 33.54730785 -0.69675159 C63.13189907 -1.74690873 63.13189907 -1.74690873 71.37676001 5.18264389 C73.6795443 7.52427583 75.68001648 9.95875787 77.58306873 12.63283825 C79.7402432 15.4811425 82.34647189 17.66340919 85.03473389 20.00954914 C90.79636209 25.27754387 96.53461817 30.57040153 102.26862061 35.86843586 C104.98150975 38.37469019 107.69568248 40.8795536 110.40973389 43.38454914 C111.49307347 44.38454238 112.5764068 45.38454238 113.65973389 46.38454914 C114.46410889 47.12704914 114.46410889 47.12704914 115.28473389 47.88454914 C120.15973388 52.38454913 120.15973388 52.38454913 121.78497803 53.88479328 C122.8674726 54.88400652 123.9499921 55.88319276 125.03253663 56.88235188 C127.75390897 59.3941675 130.47483584 61.90646247 133.19489014 64.41970539 C138.91605611 69.704973 144.64577621 74.98054964 150.39044678 80.24026203 C155.04499086 84.50380913 159.68165824 88.7865437 164.31598389 93.07204914 C164.88104645 93.557784 165.44610901 94.04351887 166.02829468 94.54397297 C167.90973389 96.38454914 167.90973389 96.38454914 169.78018677 99.07473469 C174.4512378 104.83631624 178.57668268 107.54544305 186.05737793 108.35696125 C193.67718584 108.79025255 201.29411347 108.67451844 208.92099631 108.54351521 C213.12754264 108.48481476 217.33398884 108.49313448 221.54086792 108.49587727 C227.21333424 108.49543456 232.88553507 108.48767487 238.55791771 108.45504475 C255.05810987 108.36083501 271.55358706 108.45011848 288.05328858 108.59548664 C289.38803145 108.60709712 290.72277447 108.6186899 292.05751765 108.63026524 C297.52468376 108.67779518 302.99184549 108.72579431 308.45899904 108.7747488 C323.41817017 108.90816377 338.37751695 109.01432772 353.3369109 109.11920309 C356.98449199 109.14485427 360.63207036 109.17088592 364.2796489 109.19689655 C376.0845005 109.28099419 387.88935765 109.36429762 399.69421875 109.44704914 C402.66416916 109.46787533 405.63411952 109.48870856 408.60406983 109.50954914 C409.70420707 109.51726794 409.70420707 109.51726794 410.8265693 109.52514267 C423.23686122 109.61228385 435.6471347 109.70182249 448.05739713 109.79306507 C454.9270582 109.84348282 461.79672304 109.89272017 468.66641343 109.9389925 C504.75407187 110.18250843 540.82846632 110.66812094 576.90973389 111.38454914 C576.90973389 120.29454914 576.90973389 129.20454914 576.90973389 138.38454914 C239.64973389 138.38454914 -97.61026611 138.38454914 -445.09026611 138.38454914 C-445.09026611 93.50454914 -445.09026611 48.62454914 -445.09026611 2.38454914 C-392.08878456 2.12777424 -339.08729686 1.8724546 -286.08579371 1.6201846 C-279.77738861 1.59015688 -273.46898358 1.56011217 -267.16057861 1.53005695 C-265.90509556 1.52407572 -264.6496125 1.51809449 -263.35608451 1.51193202 C-243.23267974 1.41602223 -223.10928179 1.31874855 -202.98588617 1.22093832 C-182.2181292 1.12002776 -161.45036524 1.02065804 -140.68259454 0.92261505 C-130.1961877 0.87307213 -119.70978239 0.82331629 -109.22338591 0.77162248 C-105.85733393 0.75503238 -102.49128133 0.7385726 -99.12522864 0.72212601 C-94.71782374 0.70057307 -90.3104222 0.67844426 -85.90302181 0.65598869 C-75.31506087 0.60303342 -64.72724646 0.5610422 -54.13916481 0.54319477 C-50.07169532 0.53525197 -46.00422885 0.52636398 -41.93676269 0.51687336 C-40.94419522 0.51472226 -39.95162775 0.51257116 -38.92898248 0.51035488 C-25.94807113 0.47728797 -12.97731319 0.30576052 0 0 Z " fill="#1E57AF" transform="translate(445.0902661085129,522.6154508590698)"/>
</svg>
